<!DOCTYPE svg PUBLIC "-//W3C//DTD SVG 1.1//EN" "http://www.w3.org/Graphics/SVG/1.1/DTD/svg11.dtd">
<!-- Uploaded to: SVG Repo, www.svgrepo.com, Transformed by: SVG Repo Mixer Tools -->
<svg version="1.1" id="Capa_1" xmlns="http://www.w3.org/2000/svg" xmlns:xlink="http://www.w3.org/1999/xlink" viewBox="-21.48 -21.48 400.97 400.97" xml:space="preserve" width="64px" height="64px" fill="#000000" stroke="#000000" stroke-width="3.58012">
<g id="SVGRepo_bgCarrier" stroke-width="0"/>
<g id="SVGRepo_tracerCarrier" stroke-linecap="round" stroke-linejoin="round"/>
<g id="SVGRepo_iconCarrier"> <g> <g> <polygon style="fill:#ffffff;" points="274.303,52.983 274.303,88.784 322.211,88.784 322.211,269.228 274.303,269.228 274.303,305.029 358.012,305.029 358.012,52.983 "/> <polygon style="fill:#ffffff;" points="35.801,88.784 83.709,88.784 83.709,52.983 0,52.983 0,305.029 83.709,305.029 83.709,269.228 35.801,269.228 "/> <rect x="167.072" y="90.968" style="fill:#ffffff;" width="23.867" height="54.466"/> <polygon style="fill:#ffffff;" points="304.31,193.515 304.31,169.647 274.303,169.647 217.564,169.647 217.564,193.515 274.303,193.515 "/> <rect x="167.072" y="211.749" style="fill:#ffffff;" width="23.867" height="54.466"/> <polygon style="fill:#ffffff;" points="53.702,169.647 53.702,193.515 83.709,193.515 140.448,193.515 140.448,169.647 83.709,169.647 "/> </g> </g> </g>
</svg>